HIERARCHY
ROOT mixamorig1:Hips
{
	OFFSET -0.000023 99.754364 3.007874
	CHANNELS 6 Xposition Yposition Zposition Xrotation Yrotation Zrotation
	JOINT mixamorig1:Spine
	{
		OFFSET 0.000000 9.717224 -1.180208
		CHANNELS 3 Xrotation Yrotation Zrotation
		JOINT mixamorig1:Spine1
		{
			OFFSET 0.000000 11.336823 -1.376933
			CHANNELS 3 Xrotation Yrotation Zrotation
			JOINT mixamorig1:Spine2
			{
				OFFSET 0.000000 12.956345 -1.573654
				CHANNELS 3 Xrotation Yrotation Zrotation
				JOINT mixamorig1:Neck
				{
					OFFSET 0.000000 14.575974 -1.770438
					CHANNELS 3 Xrotation Yrotation Zrotation
					JOINT mixamorig1:Head
					{
						OFFSET 0.000000 6.720200 1.972157
						CHANNELS 3 Xrotation Yrotation Zrotation
						JOINT mixamorig1:HeadTop_End
						{
							OFFSET 0.000000 20.999847 6.162763
							CHANNELS 3 Xrotation Yrotation Zrotation
							End Site
							{
								OFFSET 0.000000 21.885452 -0.000001
							}
						}
					}
				}
				JOINT mixamorig1:LeftShoulder
				{
					OFFSET 6.140116 12.877853 -1.799545
					CHANNELS 3 Xrotation Yrotation Zrotation
					JOINT mixamorig1:LeftArm
					{
						OFFSET 12.545031 -3.431427 -0.058010
						CHANNELS 3 Xrotation Yrotation Zrotation
						JOINT mixamorig1:LeftForeArm
						{
							OFFSET 25.447281 -1.876373 -1.505625
							CHANNELS 3 Xrotation Yrotation Zrotation
							JOINT mixamorig1:LeftHand
							{
								OFFSET 23.367504 0.877640 0.971305
								CHANNELS 3 Xrotation Yrotation Zrotation
								JOINT mixamorig1:LeftHandThumb1
								{
									OFFSET 3.575478 -1.761887 3.039434
									CHANNELS 3 Xrotation Yrotation Zrotation
									JOINT mixamorig1:LeftHandThumb2
									{
										OFFSET 2.860405 -1.409454 2.431552
										CHANNELS 3 Xrotation Yrotation Zrotation
										JOINT mixamorig1:LeftHandThumb3
										{
											OFFSET 2.578941 -1.801514 1.750709
											CHANNELS 3 Xrotation Yrotation Zrotation
											JOINT mixamorig1:LeftHandThumb4
											{
												OFFSET 2.408989 -1.461151 1.064221
												CHANNELS 3 Xrotation Yrotation Zrotation
												End Site
												{
													OFFSET 2.176476 -1.503357 1.440013
												}
											}
										}
									}
								}
								JOINT mixamorig1:LeftHandIndex1
								{
									OFFSET 11.357018 -1.306473 4.439679
									CHANNELS 3 Xrotation Yrotation Zrotation
									JOINT mixamorig1:LeftHandIndex2
									{
										OFFSET 3.215240 -0.390930 0.624045
										CHANNELS 3 Xrotation Yrotation Zrotation
										JOINT mixamorig1:LeftHandIndex3
										{
											OFFSET 2.938980 -0.735489 0.560646
											CHANNELS 3 Xrotation Yrotation Zrotation
											JOINT mixamorig1:LeftHandIndex4
											{
												OFFSET 2.552437 -0.779205 0.483288
												CHANNELS 3 Xrotation Yrotation Zrotation
												End Site
												{
													OFFSET 2.555870 -0.777603 0.467434
												}
											}
										}
									}
								}
								JOINT mixamorig1:LeftHandMiddle1
								{
									OFFSET 12.195602 -0.657242 2.108765
									CHANNELS 3 Xrotation Yrotation Zrotation
									JOINT mixamorig1:LeftHandMiddle2
									{
										OFFSET 3.379944 -0.547394 0.236206
										CHANNELS 3 Xrotation Yrotation Zrotation
										JOINT mixamorig1:LeftHandMiddle3
										{
											OFFSET 3.043900 -0.829651 0.195068
											CHANNELS 3 Xrotation Yrotation Zrotation
											JOINT mixamorig1:LeftHandMiddle4
											{
												OFFSET 2.806625 -0.600723 0.188473
												CHANNELS 3 Xrotation Yrotation Zrotation
												End Site
												{
													OFFSET 2.806618 -0.600739 0.188510
												}
											}
										}
									}
								}
								JOINT mixamorig1:LeftHandRing1
								{
									OFFSET 12.563576 -0.458878 -0.154891
									CHANNELS 3 Xrotation Yrotation Zrotation
									JOINT mixamorig1:LeftHandRing2
									{
										OFFSET 2.596565 -0.829819 0.032336
										CHANNELS 3 Xrotation Yrotation Zrotation
										JOINT mixamorig1:LeftHandRing3
										{
											OFFSET 2.548286 -0.608398 0.044838
											CHANNELS 3 Xrotation Yrotation Zrotation
											JOINT mixamorig1:LeftHandRing4
											{
												OFFSET 2.167870 -0.507812 0.038965
												CHANNELS 3 Xrotation Yrotation Zrotation
												End Site
												{
													OFFSET 2.167732 -0.508163 0.042114
												}
											}
										}
									}
								}
								JOINT mixamorig1:LeftHandPinky1
								{
									OFFSET 11.341652 -0.310532 -2.253323
									CHANNELS 3 Xrotation Yrotation Zrotation
									JOINT mixamorig1:LeftHandPinky2
									{
										OFFSET 2.648827 -0.669128 -0.120024
										CHANNELS 3 Xrotation Yrotation Zrotation
										JOINT mixamorig1:LeftHandPinky3
										{
											OFFSET 2.075249 -0.703857 -0.105192
											CHANNELS 3 Xrotation Yrotation Zrotation
											JOINT mixamorig1:LeftHandPinky4
											{
												OFFSET 1.850784 -0.684036 -0.097376
												CHANNELS 3 Xrotation Yrotation Zrotation
												End Site
												{
													OFFSET 1.850731 -0.683411 -0.102854
												}
											}
										}
									}
								}
							}
						}
					}
				}
				JOINT mixamorig1:RightShoulder
				{
					OFFSET -6.140133 12.877823 -1.741388
					CHANNELS 3 Xrotation Yrotation Zrotation
					JOINT mixamorig1:RightArm
					{
						OFFSET -12.545002 -3.431366 0.058123
						CHANNELS 3 Xrotation Yrotation Zrotation
						JOINT mixamorig1:RightForeArm
						{
							OFFSET -25.447330 -1.876465 -1.671036
							CHANNELS 3 Xrotation Yrotation Zrotation
							JOINT mixamorig1:RightHand
							{
								OFFSET -23.367435 0.877640 0.912149
								CHANNELS 3 Xrotation Yrotation Zrotation
								JOINT mixamorig1:RightHandThumb1
								{
									OFFSET -3.655281 -1.787811 3.110017
									CHANNELS 3 Xrotation Yrotation Zrotation
									JOINT mixamorig1:RightHandThumb2
									{
										OFFSET -2.924309 -1.430252 2.488113
										CHANNELS 3 Xrotation Yrotation Zrotation
										JOINT mixamorig1:RightHandThumb3
										{
											OFFSET -2.528549 -1.776962 1.706924
											CHANNELS 3 Xrotation Yrotation Zrotation
											JOINT mixamorig1:RightHandThumb4
											{
												OFFSET -2.443375 -1.162323 1.073468
												CHANNELS 3 Xrotation Yrotation Zrotation
												End Site
												{
													OFFSET -2.204521 -1.202744 1.472025
												}
											}
										}
									}
								}
								JOINT mixamorig1:RightHandIndex1
								{
									OFFSET -11.888382 -1.247833 4.755188
									CHANNELS 3 Xrotation Yrotation Zrotation
									JOINT mixamorig1:RightHandIndex2
									{
										OFFSET -3.042244 -0.516434 0.442817
										CHANNELS 3 Xrotation Yrotation Zrotation
										JOINT mixamorig1:RightHandIndex3
										{
											OFFSET -2.738869 -0.708374 0.392164
											CHANNELS 3 Xrotation Yrotation Zrotation
											JOINT mixamorig1:RightHandIndex4
											{
												OFFSET -2.432571 -0.620773 0.348507
												CHANNELS 3 Xrotation Yrotation Zrotation
												End Site
												{
													OFFSET -2.433441 -0.620270 0.343348
												}
											}
										}
									}
								}
								JOINT mixamorig1:RightHandMiddle1
								{
									OFFSET -12.008347 -0.748550 2.098396
									CHANNELS 3 Xrotation Yrotation Zrotation
									JOINT mixamorig1:RightHandMiddle2
									{
										OFFSET -3.442291 -0.415817 0.287318
										CHANNELS 3 Xrotation Yrotation Zrotation
										JOINT mixamorig1:RightHandMiddle3
										{
											OFFSET -3.106178 -0.837677 0.240102
											CHANNELS 3 Xrotation Yrotation Zrotation
											JOINT mixamorig1:RightHandMiddle4
											{
												OFFSET -2.855728 -0.604996 0.227592
												CHANNELS 3 Xrotation Yrotation Zrotation
												End Site
												{
													OFFSET -2.855972 -0.604736 0.225131
												}
											}
										}
									}
								}
								JOINT mixamorig1:RightHandRing1
								{
									OFFSET -12.328026 -0.608994 -0.015787
									CHANNELS 3 Xrotation Yrotation Zrotation
									JOINT mixamorig1:RightHandRing2
									{
										OFFSET -2.763496 -0.569153 -0.029507
										CHANNELS 3 Xrotation Yrotation Zrotation
										JOINT mixamorig1:RightHandRing3
										{
											OFFSET -2.573975 -0.772354 -0.042469
											CHANNELS 3 Xrotation Yrotation Zrotation
											JOINT mixamorig1:RightHandRing4
											{
												OFFSET -2.323860 -0.456833 -0.023427
												CHANNELS 3 Xrotation Yrotation Zrotation
												End Site
												{
													OFFSET -2.323814 -0.457275 -0.019363
												}
											}
										}
									}
								}
								JOINT mixamorig1:RightHandPinky1
								{
									OFFSET -11.463135 -0.329407 -2.202621
									CHANNELS 3 Xrotation Yrotation Zrotation
									JOINT mixamorig1:RightHandPinky2
									{
										OFFSET -2.569016 -0.599854 -0.108848
										CHANNELS 3 Xrotation Yrotation Zrotation
										JOINT mixamorig1:RightHandPinky3
										{
											OFFSET -2.016190 -0.737000 -0.102787
											CHANNELS 3 Xrotation Yrotation Zrotation
											JOINT mixamorig1:RightHandPinky4
											{
												OFFSET -1.796242 -0.576553 -0.085258
												CHANNELS 3 Xrotation Yrotation Zrotation
												End Site
												{
													OFFSET -1.796211 -0.576279 -0.087722
												}
											}
										}
									}
								}
							}
						}
					}
				}
			}
		}
	}
	JOINT mixamorig1:LeftUpLeg
	{
		OFFSET 8.078197 -5.402374 -0.535866
		CHANNELS 3 Xrotation Yrotation Zrotation
		JOINT mixamorig1:LeftLeg
		{
			OFFSET 3.743073 -42.540520 -2.695462
			CHANNELS 3 Xrotation Yrotation Zrotation
			JOINT mixamorig1:LeftFoot
			{
				OFFSET 3.359008 -41.940849 -2.882249
				CHANNELS 3 Xrotation Yrotation Zrotation
				JOINT mixamorig1:LeftToeBase
				{
					OFFSET 1.133368 -9.116439 13.321875
					CHANNELS 3 Xrotation Yrotation Zrotation
					JOINT mixamorig1:LeftToe_End
					{
						OFFSET 0.591574 -0.054443 6.177378
						CHANNELS 3 Xrotation Yrotation Zrotation
						End Site
						{
							OFFSET 0.591574 -0.054443 6.177376
						}
					}
				}
			}
		}
	}
	JOINT mixamorig1:RightUpLeg
	{
		OFFSET -8.078202 -5.402405 -0.751774
		CHANNELS 3 Xrotation Yrotation Zrotation
		JOINT mixamorig1:RightLeg
		{
			OFFSET -3.743069 -42.540482 -2.464520
			CHANNELS 3 Xrotation Yrotation Zrotation
			JOINT mixamorig1:RightFoot
			{
				OFFSET -3.359002 -41.940781 -2.968978
				CHANNELS 3 Xrotation Yrotation Zrotation
				JOINT mixamorig1:RightToeBase
				{
					OFFSET -1.133408 -9.116800 13.416487
					CHANNELS 3 Xrotation Yrotation Zrotation
					JOINT mixamorig1:RightToe_End
					{
						OFFSET -0.591589 -0.054615 6.151405
						CHANNELS 3 Xrotation Yrotation Zrotation
						End Site
						{
							OFFSET -0.591589 -0.054615 6.151402
						}
					}
				}
			}
		}
	}
}
MOTION
Frames: 4
Frame Time: 0.033333
1.371063 100.629013 9.472925 0.000164 0.016705 1.065481 -9.741687 0.202726 -2.378642 -0.000104 4.965217 -0.000011 0.000002 0.000000 -0.000000 0.434633 -17.247761 4.827407 5.411128 0.000004 -0.000002 0.000000 0.000000 0.000000 -0.000703 0.000035 8.839731 -1.280831 -21.528720 -6.734365 -293.532816 -56.947764 -257.930182 -0.000004 0.000001 0.000003 -0.000001 0.000000 0.000003 -0.000004 0.000002 0.000005 0.000002 -0.000001 -0.000003 -0.000001 -0.000004 -0.000000 0.000003 0.000000 -0.000000 -0.000002 0.000004 0.000001 -0.000000 0.000002 0.000001 -0.000002 0.000003 0.000001 0.000002 0.000002 0.000002 -0.000004 0.000003 0.000002 0.000001 -0.000004 -0.000003 0.000001 -0.000001 -0.000002 0.000002 0.000001 0.000001 0.000006 -0.000003 0.000001 0.000002 0.000001 -0.000001 0.000004 -0.000001 -0.000005 0.000001 0.000004 -0.000000 -0.000001 0.000002 -0.000004 -0.000001 0.000001 0.000001 0.000001 -0.000001 0.000004 -0.000813 -0.000351 8.841232 -0.029803 24.268468 0.139426 204.462423 136.231265 -238.515725 -0.000003 -0.000000 -0.000003 -0.000000 -0.000005 -0.000003 -0.000008 0.000002 -0.000000 -0.000005 -0.000001 -0.000003 0.000002 0.000000 0.000000 -0.000000 0.000003 0.000002 0.000001 0.000001 0.000004 -0.000001 0.000002 0.000003 -0.000004 0.000001 -0.000003 -0.000002 0.000001 0.000000 -0.000000 0.000000 0.000001 0.000001 0.000000 0.000003 0.000002 -0.000001 -0.000002 0.000000 0.000000 0.000001 -0.000001 0.000001 0.000001 0.000001 0.000001 -0.000001 0.000000 0.000001 -0.000000 -0.000001 -0.000001 0.000000 0.000001 -0.000001 0.000002 -0.000000 0.000003 0.000002 0.000001 -0.000001 -0.000000 -1.844063 0.001411 1.174059 11.319897 -0.108475 -1.330918 8.631583 -5.658650 -1.914593 0.000005 -0.000001 -0.000001 -0.000001 0.000000 -0.000000 3.976638 -0.139245 -2.668246 3.206062 0.052034 4.945721 49.708006 -45.146932 1.541937 -0.000002 0.000002 -0.000001 -0.000003 0.000002 -0.000001 
1.327427 100.630318 9.439056 0.000170 -0.205758 1.006373 -9.487998 0.185572 -2.235910 -0.000041 6.099485 -0.000012 0.000000 -0.000000 0.000000 -0.299296 -18.856254 4.505281 5.704984 0.000002 -0.000001 -0.000000 0.000000 -0.000000 -0.000686 0.000078 8.843200 -1.320198 -18.487883 -8.103932 -282.844417 -55.049802 -245.012792 -0.000000 0.000004 0.000002 -0.000003 0.000000 -0.000003 -0.000001 0.000001 0.000003 0.000004 0.000002 -0.000002 -0.000002 -0.000002 0.000002 -0.000000 -0.000001 -0.000001 0.000001 0.000001 0.000001 0.000000 -0.000001 0.000001 -0.000000 -0.000001 0.000003 0.000001 0.000002 -0.000002 -0.000002 0.000000 0.000003 -0.000001 -0.000003 0.000004 0.000004 -0.000001 -0.000004 0.000003 0.000001 0.000003 -0.000003 -0.000000 -0.000003 -0.000003 0.000001 0.000003 -0.000002 0.000004 -0.000002 0.000004 -0.000000 -0.000002 -0.000000 0.000001 -0.000004 0.000000 -0.000001 -0.000001 0.000001 0.000001 0.000002 -0.000797 -0.000363 8.844856 -0.655436 21.671294 3.424081 213.008984 137.531200 -256.826041 -0.000001 -0.000002 -0.000001 0.000005 -0.000006 -0.000003 0.000001 0.000008 0.000003 -0.000001 0.000002 -0.000003 0.000002 -0.000002 -0.000003 0.000000 0.000000 -0.000003 -0.000000 -0.000001 0.000004 -0.000002 -0.000001 -0.000000 -0.000003 -0.000003 0.000001 -0.000001 -0.000002 -0.000004 0.000001 -0.000002 -0.000007 0.000001 -0.000003 -0.000005 -0.000002 -0.000000 0.000001 -0.000000 -0.000001 -0.000007 0.000001 -0.000001 -0.000001 0.000000 -0.000001 -0.000002 -0.000002 -0.000001 -0.000000 0.000001 -0.000002 -0.000007 0.000001 -0.000000 0.000002 0.000001 -0.000000 -0.000003 0.000001 0.000000 -0.000000 -1.619954 0.004072 1.278922 10.833780 -0.108320 -1.402480 9.518610 -5.582550 -1.840741 -0.000003 -0.000001 -0.000001 -0.000000 0.000000 -0.000001 3.967493 -0.133646 -2.564708 2.890019 0.038186 4.920127 50.229382 -45.334151 1.767023 -0.000002 -0.000008 0.000003 -0.000003 -0.000000 -0.000001 
1.274542 100.663795 9.239243 0.000165 -0.620672 0.916207 -8.967740 0.158656 -2.023056 -0.000060 5.924981 -0.000003 0.000001 -0.000001 -0.000000 -1.082194 -18.925300 4.008256 5.905747 -0.000005 0.000004 -0.000000 0.000001 -0.000000 -0.000689 -0.000023 8.181444 -1.094133 -15.549464 -8.007159 -277.340624 -51.140912 -235.726166 -0.000003 -0.000000 0.000003 -0.000004 -0.000002 -0.000001 -0.000001 0.000000 0.000004 -0.000003 -0.000002 -0.000003 0.000003 -0.000002 0.000002 0.000002 -0.000004 -0.000001 -0.000000 0.000001 0.000000 0.000001 0.000001 0.000000 -0.000002 -0.000000 -0.000003 0.000000 0.000001 -0.000000 0.000002 0.000002 0.000007 0.000003 0.000000 -0.000002 0.000002 0.000000 0.000003 0.000001 -0.000001 -0.000002 0.000003 -0.000001 -0.000005 0.000000 0.000002 0.000004 -0.000001 0.000002 0.000004 -0.000001 -0.000000 -0.000003 -0.000002 0.000002 -0.000002 -0.000002 0.000000 0.000001 0.000001 -0.000005 0.000003 -0.000816 -0.000339 8.182982 -1.370445 19.742342 7.864417 224.052075 133.712332 -268.804663 -0.000000 -0.000001 0.000004 0.000002 -0.000003 -0.000004 0.000003 0.000001 0.000001 -0.000005 0.000003 0.000005 -0.000003 -0.000007 0.000001 -0.000001 0.000002 -0.000004 0.000001 0.000001 -0.000001 -0.000001 0.000001 -0.000001 -0.000003 -0.000003 -0.000002 0.000001 0.000001 -0.000003 -0.000001 0.000001 0.000005 0.000003 0.000001 0.000001 -0.000000 0.000001 0.000001 0.000002 0.000002 -0.000005 -0.000001 0.000001 0.000001 0.000004 -0.000000 -0.000006 0.000002 -0.000001 0.000000 0.000001 0.000000 -0.000005 -0.000001 -0.000001 0.000002 -0.000000 0.000001 0.000000 -0.000000 -0.000002 -0.000000 -1.506907 0.005984 1.400555 10.284397 -0.110628 -1.527658 10.690919 -5.178506 -1.648764 0.000005 -0.000000 -0.000000 -0.000003 -0.000000 -0.000000 3.575328 -0.118648 -2.437885 3.329694 0.057354 4.944505 48.834210 -45.340913 1.184063 -0.000002 -0.000005 -0.000001 -0.000001 -0.000003 -0.000003 
1.234293 100.666130 9.165258 0.000167 -0.641218 0.884352 -8.949211 0.160878 -2.055641 -0.000050 6.177603 -0.000002 0.000001 0.000000 -0.000000 -0.658224 -19.809201 4.125334 5.731566 -0.000016 0.000000 -0.000002 -0.000000 0.000001 -0.000688 0.000031 8.204401 -1.137747 -16.669609 -7.760210 -277.903786 -50.113730 -235.049158 -0.000001 0.000006 -0.000002 -0.000002 0.000000 0.000003 -0.000006 -0.000001 0.000005 0.000002 0.000003 -0.000003 -0.000000 -0.000004 0.000003 0.000002 0.000003 0.000003 0.000001 0.000006 -0.000000 0.000003 -0.000004 0.000001 -0.000000 0.000001 0.000001 0.000005 0.000003 0.000003 0.000001 0.000003 -0.000002 -0.000000 0.000001 -0.000003 -0.000005 -0.000000 -0.000001 0.000002 0.000006 0.000003 0.000000 0.000003 -0.000000 0.000003 -0.000001 0.000001 0.000001 0.000001 -0.000000 0.000003 0.000005 0.000002 -0.000001 0.000003 0.000003 0.000001 0.000001 0.000004 -0.000000 0.000000 -0.000001 -0.000805 -0.000355 8.205980 -1.530193 19.783021 8.759416 226.776118 132.117579 -270.345171 -0.000003 0.000002 0.000004 0.000002 -0.000001 -0.000002 0.000001 0.000005 0.000001 -0.000005 -0.000005 -0.000001 -0.000000 0.000001 0.000004 -0.000000 0.000002 0.000000 0.000001 0.000004 -0.000002 0.000000 0.000001 0.000003 -0.000001 0.000001 -0.000003 -0.000001 0.000002 -0.000002 0.000001 -0.000002 -0.000002 -0.000003 -0.000001 0.000003 0.000000 -0.000000 0.000002 -0.000002 0.000001 -0.000003 0.000000 -0.000001 0.000006 -0.000001 0.000000 0.000004 0.000001 0.000000 0.000000 -0.000000 0.000002 -0.000003 -0.000002 -0.000001 -0.000001 0.000001 0.000001 -0.000001 -0.000001 -0.000002 -0.000011 -1.413559 0.007416 1.483163 9.852656 -0.112574 -1.640431 10.687717 -5.358102 -1.706200 -0.000005 0.000000 -0.000001 -0.000004 0.000000 -0.000000 3.530545 -0.113172 -2.344373 3.606768 0.070951 5.060853 47.507511 -45.500770 0.632172 0.000000 0.000002 0.000000 -0.000002 -0.000000 -0.000002 
